<svg viewBox="0 0 16 16" xmlns="http://www.w3.org/2000/svg">
    <g id="favicon" stroke="none" stroke-width="1" fill="none" fill-rule="evenodd">
        <path d="M3.8458278,-1.55376046e-16 L12.1541722,1.55376046e-16 C13.4914503,-9.02779573e-17 13.9763797,0.139238417 14.4652686,0.400699056 C14.9541574,0.662159695 15.3378403,1.04584256 15.5993009,1.53473144 C15.8607616,2.02362033 16,2.50854969 16,3.8458278 L16,12.1541722 C16,13.4914503 15.8607616,13.9763797 15.5993009,14.4652686 C15.3378403,14.9541574 14.9541574,15.3378403 14.4652686,15.5993009 C13.9763797,15.8607616 13.4914503,16 12.1541722,16 L3.8458278,16 C2.50854969,16 2.02362033,15.8607616 1.53473144,15.5993009 C1.04584256,15.3378403 0.662159695,14.9541574 0.400699056,14.4652686 C0.139238417,13.9763797 6.01853049e-17,13.4914503 -1.03584031e-16,12.1541722 L1.03584031e-16,3.8458278 C-6.01853049e-17,2.50854969 0.139238417,2.02362033 0.400699056,1.53473144 C0.662159695,1.04584256 1.04584256,0.662159695 1.53473144,0.400699056 C2.02362033,0.139238417 2.50854969,9.02779573e-17 3.8458278,-1.55376046e-16 Z" id="background" fill="#2E2F30"></path>
        <path d="M3.2819426,2 L6,2 L6,2 L6,7 L2,7 L2,3.2819426 C2,2.83618323 2.04641281,2.67454011 2.13356635,2.51157715 C2.2207199,2.34861419 2.34861419,2.2207199 2.51157715,2.13356635 C2.67454011,2.04641281 2.83618323,2 3.2819426,2 Z" id="Rectangle" fill="#FFB485"></path>
        <path d="M2,9 L8,9 L8,14 L3.2819426,14 C2.83618323,14 2.67454011,13.9535872 2.51157715,13.8664336 C2.34861419,13.7792801 2.2207199,13.6513858 2.13356635,13.4884229 C2.04641281,13.3254599 2,13.1638168 2,12.7180574 L2,9 L2,9 Z" id="Rectangle-Copy-2" fill="#AAA7D8"></path>
        <path d="M8,2 L12.7180574,2 C13.1638168,2 13.3254599,2.04641281 13.4884229,2.13356635 C13.6513858,2.2207199 13.7792801,2.34861419 13.8664336,2.51157715 C13.9535872,2.67454011 14,2.83618323 14,3.2819426 L14,7 L14,7 L8,7 L8,2 Z" id="Rectangle-Copy" fill="#FEB4D1"></path>
        <path d="M10,9 L14,9 L14,12.7180574 C14,13.1638168 13.9535872,13.3254599 13.8664336,13.4884229 C13.7792801,13.6513858 13.6513858,13.7792801 13.4884229,13.8664336 C13.3254599,13.9535872 13.1638168,14 12.7180574,14 L10,14 L10,14 L10,9 Z" id="Rectangle-Copy-3" fill="#9BDACA"></path>
    </g>
		<style>
			@media (prefers-color-scheme: dark) { #background { fill: #ffffff; } }
		</style>
</svg>