<svg viewBox="0 0 16 16" version="1.1" xmlns="http://www.w3.org/2000/svg">
    <g id="Icons" stroke="none" stroke-width="1" fill="none" fill-rule="evenodd" fill-opacity="0.75">
        <g id="Icon/Github" fill="#000000">
            <path d="M13,0 C14.6568542,0 16,1.34314575 16,3 C16,4.30588222 15.1656226,5.41688515 14.0009007,5.82897577 L14,6 C14,7.59768088 12.75108,8.90366088 11.1762728,8.99490731 L11,9 L9,9 L9.00090072,10.1710242 C10.1656226,10.5831148 11,11.6941178 11,13 C11,14.6568542 9.65685425,16 8,16 C6.34314575,16 5,14.6568542 5,13 C5,11.6937479 5.8348501,10.5824856 7.00008893,10.1706743 L7,9 L5,9 C3.40231912,9 2.09633912,7.75108004 2.00509269,6.17627279 L2,6 L2.00008893,5.82932572 C0.834850101,5.41751442 0,4.30625206 0,3 C0,1.34314575 1.34314575,0 3,0 C4.65685425,0 6,1.34314575 6,3 C6,4.30588222 5.16562257,5.41688515 4.00090072,5.82897577 L4,6 C4,6.51283584 4.38604019,6.93550716 4.88337887,6.99327227 L5,7 L11,7 C11.5128358,7 11.9355072,6.61395981 11.9932723,6.11662113 L12,6 L12.0000889,5.82932572 C10.8348501,5.41751442 10,4.30625206 10,3 C10,1.34314575 11.3431458,0 13,0 Z M8,12 C7.44771525,12 7,12.4477153 7,13 C7,13.5522847 7.44771525,14 8,14 C8.55228475,14 9,13.5522847 9,13 C9,12.4477153 8.55228475,12 8,12 Z M3,2 C2.44771525,2 2,2.44771525 2,3 C2,3.55228475 2.44771525,4 3,4 C3.55228475,4 4,3.55228475 4,3 C4,2.44771525 3.55228475,2 3,2 Z M13,2 C12.4477153,2 12,2.44771525 12,3 C12,3.55228475 12.4477153,4 13,4 C13.5522847,4 14,3.55228475 14,3 C14,2.44771525 13.5522847,2 13,2 Z" id="Combined-Shape"></path>
        </g>
    </g>
</svg>