<svg viewBox="0 0 16 16" version="1.1" xmlns="http://www.w3.org/2000/svg">
    <g id="Icons" stroke="none" stroke-width="1" fill="none" fill-rule="evenodd" fill-opacity="0.75">
        <g id="Icon/RSS" fill="#000000">
            <path d="M4,10 C5.1045695,10 6,10.8954305 6,12 C6,13.1045695 5.1045695,14 4,14 C2.8954305,14 2,13.1045695 2,12 C2,10.8954305 2.8954305,10 4,10 Z M3,0 C10.1797017,0 16,5.82029825 16,13 C16,13.5522847 15.5522847,14 15,14 C14.4477153,14 14,13.5522847 14,13 C14,6.92486775 9.07513225,2 3,2 C2.44771525,2 2,1.55228475 2,1 C2,0.44771525 2.44771525,0 3,0 Z M3,5 C7.418278,5 11,8.581722 11,13 C11,13.5522847 10.5522847,14 10,14 C9.44771525,14 9,13.5522847 9,13 C9,9.6862915 6.3137085,7 3,7 C2.44771525,7 2,6.55228475 2,6 C2,5.44771525 2.44771525,5 3,5 Z" id="Combined-Shape"></path>
        </g>
    </g>
</svg>