<svg viewBox="0 0 16 16" xmlns="http://www.w3.org/2000/svg">
    <g id="Icons" stroke="none" stroke-width="1" fill="none" fill-rule="evenodd">
        <g id="Icon/Twitter">
            <path fill="rgba(0,0,0,.75)" d="M8.49859263,0.0147527142 C8.55926778,0.0185964524 8.61987375,0.0231288294 8.68039838,0.0283466961 C8.7085297,0.0308980891 8.73615884,0.0333708763 8.76374718,0.0359837682 C8.79990165,0.0394647549 8.83661905,0.0432695174 8.87330159,0.0473264037 C8.92452291,0.0526804078 8.97535434,0.0586950336 9.02603746,0.0651839266 C9.03850784,0.0673225656 9.05050282,0.0689104863 9.06249354,0.0705254045 C10.0418005,0.199843619 10.9655081,0.507091036 11.799934,0.958325944 C11.8099518,0.964129195 11.8202051,0.96967844 11.8304472,0.97525068 L11.9027553,1.01490967 C11.9182198,1.02356862 11.9336525,1.03227743 11.9490534,1.0410359 C12.7892559,1.51676822 13.5517224,2.14976711 14.18754,2.92727432 C14.2038368,2.94855054 14.2208198,2.96945407 14.2376991,2.99044459 C14.2688582,3.02814138 14.298882,3.06633205 14.3286031,3.10485638 C15.376057,4.45757144 16,6.15592088 16,8 C16,9.65685425 14.6568542,11 13,11 C12.3244374,11 11.701029,10.7767015 11.1995567,10.3998867 C10.4707333,11.3714462 9.30876996,12 8,12 C5.790861,12 4,10.209139 4,8 C4,5.790861 5.790861,4 8,4 C10.209139,4 12,5.790861 12,8 L12,8 L12.0067277,8.11662113 C12.0644928,8.61395981 12.4871642,9 13,9 C13.5522847,9 14,8.55228475 14,8 L14,8 L13.9958615,7.77506174 C13.9600995,6.80475176 13.6939267,5.89329582 13.250444,5.09379483 L13.169775,4.95476982 C13.0896876,4.8188085 13.0050739,4.68716462 12.9162381,4.55991692 L12.7922619,4.38913863 C12.4575938,3.94567327 12.0627945,3.55013223 11.6199877,3.21463904 C11.6109033,3.20621677 11.6012826,3.19899123 11.5916426,3.19179672 L11.6199877,3.21463904 C11.5118921,3.13274019 11.4009355,3.05441971 11.2872945,2.97985397 C11.2631097,2.96326444 11.2388617,2.94766487 11.2145136,2.93224851 L11.2872945,2.97985397 C11.168531,2.90192718 11.0468356,2.82810124 10.9224096,2.75857747 C10.2827237,2.40289153 9.58432491,2.16762019 8.86421331,2.06235094 C8.84246789,2.0586387 8.82017181,2.05554829 8.79783692,2.05258073 L8.86421331,2.06235094 C8.79210432,2.05180972 8.7197776,2.04257204 8.64727072,2.03464764 L8.79783692,2.05258073 C8.7267562,2.0431365 8.65528239,2.03493668 8.5834381,2.02800388 L8.64727072,2.03464764 C8.57609111,2.02686829 8.50473786,2.02035457 8.43324649,2.01511567 L8.5834381,2.02800388 C8.39146023,2.00947847 8.19683702,2 8,2 C7.55520217,2 7.12170888,2.0484005 6.70449951,2.14022213 C6.69621889,2.14170239 6.68824863,2.14348369 6.68028025,2.14528181 L6.70449951,2.14022213 C6.65985536,2.15004765 6.61539766,2.16037035 6.57113253,2.17118415 L6.68028025,2.14528181 C6.60194892,2.1629578 6.52379917,2.18225861 6.44587793,2.20319637 L6.57113253,2.17118415 C6.50426762,2.18751898 6.43784209,2.20497437 6.37187697,2.22352928 L6.44587793,2.20319637 C6.38154958,2.22048166 6.31737697,2.23888261 6.25338651,2.25840605 L6.37187697,2.22352928 C6.29855223,2.24415433 6.22579636,2.26613793 6.15363824,2.28945121 L6.25338651,2.25840605 C6.17485052,2.2823673 6.09658889,2.30801934 6.01865043,2.33537477 L6.15363824,2.28945121 C6.08981352,2.31007208 6.02645646,2.33173324 5.96358703,2.3544147 L6.01865043,2.33537477 C5.95199218,2.35877099 5.88557032,2.38341322 5.81941539,2.40930935 L5.96358703,2.3544147 C5.89576789,2.37888187 5.82851619,2.40453633 5.76185704,2.43135298 L5.81941539,2.40930935 C5.52501703,2.52455063 5.23590481,2.66462387 4.95476982,2.83022504 C4.75299743,2.94907806 4.56073371,3.07789998 4.37823597,3.21569592 C4.27892638,3.2912934 4.18227182,3.36941809 4.08815821,3.45041311 C4.07553773,3.46002924 4.06361475,3.47033929 4.05173999,3.48068996 L4.08815821,3.45041311 C3.55988792,3.90504723 3.1116752,4.45011666 2.76754806,5.06159339 C2.33686025,5.83048911 2.08060297,6.68518008 2.01555925,7.56074157 C2.00532845,7.70607726 2,7.85241637 2,8 C2,8.48737336 2.05810963,8.96117449 2.16777842,9.41485292 C2.17825862,9.4588474 2.18953603,9.50305536 2.2013383,9.54719049 L2.16777842,9.41485292 C2.18577954,9.48932005 2.20516978,9.56324502 2.22592016,9.63659888 L2.2013383,9.54719049 C2.2200434,9.61713904 2.24006686,9.68690463 2.26141746,9.75645333 L2.22592016,9.63659888 C2.24278663,9.69622285 2.26055173,9.75546949 2.2791999,9.81432325 L2.26141746,9.75645333 C2.39686292,10.1976613 2.58571875,10.6301409 2.83022504,11.0452302 C2.96584255,11.275463 3.11443957,11.4933156 3.27453807,11.6984056 C3.68297489,12.2189948 4.1760245,12.6711399 4.73293719,13.0333629 L4.88205852,13.1276203 C4.90615049,13.1422411 4.93033551,13.1566855 4.95461145,13.1709529 C5.00075068,13.1980151 5.04708166,13.2245322 5.09379483,13.250444 L5.26760872,13.3425797 C5.91890196,13.6748988 6.62576693,13.8856497 7.35067865,13.9651279 C7.48240628,13.9794525 7.61561938,13.9893777 7.74997202,13.994885 C7.76079308,13.9959627 7.77118024,13.9963778 7.78156955,13.9967661 L8,14 C8.00646146,14 8.01290861,14.0000613 8.01934089,14.0001833 C9.04967559,13.9986126 10.0931933,13.7305676 11.0452302,13.169775 C11.5210948,12.8894693 12.134092,13.0480011 12.4143977,13.5238658 C12.6947034,13.9997304 12.5361715,14.6127276 12.0603069,14.8930333 C10.6390578,15.730213 9.06490293,16.078079 7.53341819,15.9872109 C7.52005208,15.9858515 7.50676546,15.9850543 7.49348762,15.9842248 C7.43723302,15.9811215 7.38111916,15.9769162 7.32507471,15.9721233 C7.29408722,15.9693436 7.26309063,15.966573 7.23214543,15.9636262 C7.20662877,15.9611493 7.18130106,15.958564 7.15598958,15.9558587 C7.01418494,15.9411381 6.87353626,15.9225723 6.73408815,15.9004033 C6.72013498,15.8971804 6.70611922,15.8948884 6.69211024,15.8925594 C5.88282068,15.7605256 5.11448984,15.5060098 4.40639969,15.1493936 C4.39545258,15.1430363 4.38380178,15.1371589 4.37216421,15.1312524 C4.32554423,15.1082807 4.27991147,15.0844564 4.2345398,15.0602075 C4.19833936,15.0404576 4.16169774,15.0205939 4.12519941,15.0004368 C4.09111536,14.9817624 4.05741164,14.9627445 4.02386074,14.9434903 C3.98913015,14.9236595 3.95447309,14.9035093 3.91995496,14.8830902 C3.8997313,14.8708033 3.87936984,14.858585 3.8590675,14.8462789 C3.09107038,14.3830962 2.39376633,13.7856201 1.80539161,13.0640698 C1.7912587,13.0454083 1.77674183,13.0275137 1.76230092,13.0095554 C1.67168936,12.8976544 1.584084,12.7820474 1.49925435,12.6635104 C0.928888469,11.8699668 0.500410944,10.9679649 0.250581565,9.99434451 C0.20854678,9.8318536 0.172022346,9.66895047 0.14073132,9.50558198 C0.138531614,9.49022195 0.135646553,9.47482528 0.132805666,9.45941313 C-0.00188770727,8.73718774 -0.0337331648,8.00619933 0.031222794,7.28701666 C0.0333888132,7.26379285 0.0355553121,7.24042546 0.03782209,7.21708744 C0.0412974526,7.18229624 0.0449607383,7.14765366 0.048848507,7.11304243 C0.163250515,6.07386139 0.476862884,5.09475603 0.950517372,4.21454125 C0.967987685,4.18275493 0.985608074,4.15039945 1.00345767,4.11815612 C1.02533203,4.07842699 1.04767963,4.03902843 1.07035011,3.99984002 C1.085612,3.97321557 1.10118114,3.94654405 1.11690983,3.91995496 C1.13200341,3.89500638 1.14707407,3.86995026 1.16227761,3.84498396 C1.69661104,2.96315291 2.40837116,2.17489301 3.28207552,1.53853961 L3.50306438,1.38259228 C3.9269717,1.0939617 4.3800546,0.844998294 4.85697389,0.641041263 C4.86607179,0.638421075 4.87474675,0.63472116 4.88342552,0.631037731 C5.23942397,0.479038413 5.60902724,0.353219721 5.98962331,0.254713212 C6.15741251,0.210959214 6.325667,0.173053297 6.49441802,0.14073132 C6.5097711,0.138532936 6.52516082,0.135649157 6.540566,0.132809513 C7.18947622,0.0117105155 7.84546074,-0.0262145332 8.49359178,0.0144374818 L8.49346955,0.0149709347 Z M8,6 C6.8954305,6 6,6.8954305 6,8 C6,9.1045695 6.8954305,10 8,10 C9.1045695,10 10,9.1045695 10,8 C10,6.8954305 9.1045695,6 8,6 Z" id="Combined-Shape"></path>
        </g>
    </g>
		<style>
			@media (prefers-color-scheme: dark) { path { fill: #ffffff; } }
		</style>
</svg>