<?xml version="1.0" encoding="UTF-8"?>
<svg width="16px" height="16px" viewBox="0 0 16 16" version="1.1" xmlns="http://www.w3.org/2000/svg" xmlns:xlink="http://www.w3.org/1999/xlink">
    <!-- Generator: Sketch Beta 64 (93301) - https://sketch.com -->
    <title>icon-github</title>
    <desc>Created with Sketch Beta.</desc>
    <g id="Icons" stroke="none" stroke-width="1" fill="none" fill-rule="evenodd" fill-opacity="0.75">
        <g id="Icon/Github" fill="#000000">
            <path d="M12,0 C13.6568542,0 15,1.34314575 15,3 C15,4.30625206 14.1651499,5.41751442 12.9999111,5.82932572 L13,7.76393202 C13,8.83340607 12.4313016,9.81648958 11.5170566,10.3521155 L11.3416408,10.4472136 L6.97728802,12.6290171 C6.99227981,12.7505759 7,12.8743864 7,13 C7,14.6568542 5.65685425,16 4,16 C2.34314575,16 1,14.6568542 1,13 C1,11.6937479 1.8348501,10.5824856 3.00008893,10.1706743 L3.00008893,5.82932572 C1.8348501,5.41751442 1,4.30625206 1,3 C1,1.34314575 2.34314575,0 4,0 C5.65685425,0 7,1.34314575 7,3 C7,4.30588222 6.16562257,5.41688515 5.00090072,5.82897577 L5.00090072,10.1710242 C5.40915261,10.315468 5.77681824,10.5457803 6.08219177,10.8402555 L10.4472136,8.65835921 C10.748355,8.50778853 10.9509034,8.21746785 10.9921964,7.88878731 L11,7.76393202 L10.9990993,5.82897577 C9.83437743,5.41688515 9,4.30588222 9,3 C9,1.34314575 10.3431458,0 12,0 Z M4,12 C3.44771525,12 3,12.4477153 3,13 C3,13.5522847 3.44771525,14 4,14 C4.55228475,14 5,13.5522847 5,13 C5,12.4477153 4.55228475,12 4,12 Z M4,2 C3.44771525,2 3,2.44771525 3,3 C3,3.55228475 3.44771525,4 4,4 C4.55228475,4 5,3.55228475 5,3 C5,2.44771525 4.55228475,2 4,2 Z M12,2 C11.4477153,2 11,2.44771525 11,3 C11,3.55228475 11.4477153,4 12,4 C12.5522847,4 13,3.55228475 13,3 C13,2.44771525 12.5522847,2 12,2 Z" id="Combined-Shape"></path>
        </g>
    </g>
</svg>