<svg viewBox="0 0 16 16" xmlns="http://www.w3.org/2000/svg">
    <g id="Icons" stroke="none" stroke-width="1" fill="none" fill-rule="evenodd">
        <g id="Icon/Github" fill="rgba(0,0,0,.75)">
            <path d="M4,1 C5.65685425,1 7,2.34314575 7,4 C7,5.30588222 6.16562257,6.41688515 5.00090072,6.82897577 L5.00090072,9.17102423 C6.16562257,9.58311485 7,10.6941178 7,12 C7,13.6568542 5.65685425,15 4,15 C2.34314575,15 1,13.6568542 1,12 C1,10.6937479 1.8348501,9.58248558 3.00008893,9.17067428 L3.00008893,6.82932572 C1.8348501,6.41751442 1,5.30625206 1,4 C1,2.34314575 2.34314575,1 4,1 Z M4,11 C3.44771525,11 3,11.4477153 3,12 C3,12.5522847 3.44771525,13 4,13 C4.55228475,13 5,12.5522847 5,12 C5,11.4477153 4.55228475,11 4,11 Z M12,1 C13.6568542,1 15,2.34314575 15,4 C15,5.30588222 14.1656226,6.41688515 13.0009007,6.82897577 L13,12 C13,12.5128358 12.6139598,12.9355072 12.1166211,12.9932723 L12,13 L9,13 C8.44771525,13 8,12.5522847 8,12 C8,11.4871642 8.38604019,11.0644928 8.88337887,11.0067277 L9,11 L11,11 L11.0000889,6.82932572 C9.8348501,6.41751442 9,5.30625206 9,4 C9,2.34314575 10.3431458,1 12,1 Z M4,3 C3.44771525,3 3,3.44771525 3,4 C3,4.55228475 3.44771525,5 4,5 C4.55228475,5 5,4.55228475 5,4 C5,3.44771525 4.55228475,3 4,3 Z M12,3 C11.4477153,3 11,3.44771525 11,4 C11,4.55228475 11.4477153,5 12,5 C12.5522847,5 13,4.55228475 13,4 C13,3.44771525 12.5522847,3 12,3 Z" id="Combined-Shape"></path>
        </g>
    </g>
		<!-- <style>
			@media (prefers-color-scheme: dark) { path { fill: #ffffff; } }
		</style> -->
</svg>